<mxfile host="app.diagrams.net" modified="2023-02-26T10:48:35.295Z" agent="5.0 (Macintosh; Intel Mac OS X 10_15_7) AppleWebKit/537.36 (KHTML, like Gecko) Chrome/109.0.0.0 Safari/537.36" etag="jeS2JJzc799HX3QCWIon" version="20.8.23" type="github">
  <diagram id="C5RBs43oDa-KdzZeNtuy" name="Page-1">
    <mxGraphModel dx="1302" dy="632" grid="1" gridSize="10" guides="1" tooltips="1" connect="1" arrows="1" fold="1" page="1" pageScale="1" pageWidth="827" pageHeight="1169" math="0" shadow="0">
      <root>
        <mxCell id="WIyWlLk6GJQsqaUBKTNV-0" />
        <mxCell id="WIyWlLk6GJQsqaUBKTNV-1" parent="WIyWlLk6GJQsqaUBKTNV-0" />
        <mxCell id="jTylTPD2Qd7z4z5_rkoI-4" value="IGraphing2DByDiscrete" style="html=1;" parent="WIyWlLk6GJQsqaUBKTNV-1" vertex="1">
          <mxGeometry x="310" y="360" width="200" height="40" as="geometry" />
        </mxCell>
        <mxCell id="jTylTPD2Qd7z4z5_rkoI-5" value="Interpolation2D" style="html=1;" parent="WIyWlLk6GJQsqaUBKTNV-1" vertex="1">
          <mxGeometry x="150" y="440" width="120" height="40" as="geometry" />
        </mxCell>
        <mxCell id="jTylTPD2Qd7z4z5_rkoI-6" value="Approximation2D" style="html=1;" parent="WIyWlLk6GJQsqaUBKTNV-1" vertex="1">
          <mxGeometry x="550" y="440" width="120" height="40" as="geometry" />
        </mxCell>
        <mxCell id="jTylTPD2Qd7z4z5_rkoI-7" value="" style="endArrow=block;dashed=1;endFill=0;endSize=12;html=1;rounded=0;entryX=0;entryY=0.5;entryDx=0;entryDy=0;exitX=0.5;exitY=0;exitDx=0;exitDy=0;" parent="WIyWlLk6GJQsqaUBKTNV-1" source="jTylTPD2Qd7z4z5_rkoI-10" target="jTylTPD2Qd7z4z5_rkoI-5" edge="1">
          <mxGeometry width="160" relative="1" as="geometry">
            <mxPoint x="240" y="620" as="sourcePoint" />
            <mxPoint x="400" y="620" as="targetPoint" />
            <Array as="points">
              <mxPoint x="90" y="460" />
            </Array>
          </mxGeometry>
        </mxCell>
        <mxCell id="jTylTPD2Qd7z4z5_rkoI-10" value="NewtonPolynomInterp" style="html=1;" parent="WIyWlLk6GJQsqaUBKTNV-1" vertex="1">
          <mxGeometry x="30" y="560" width="120" height="40" as="geometry" />
        </mxCell>
        <mxCell id="jTylTPD2Qd7z4z5_rkoI-11" value="Extends" style="endArrow=block;endSize=16;endFill=0;html=1;rounded=0;entryX=0;entryY=0.5;entryDx=0;entryDy=0;exitX=0.5;exitY=0;exitDx=0;exitDy=0;" parent="WIyWlLk6GJQsqaUBKTNV-1" source="jTylTPD2Qd7z4z5_rkoI-5" target="jTylTPD2Qd7z4z5_rkoI-4" edge="1">
          <mxGeometry width="160" relative="1" as="geometry">
            <mxPoint x="340" y="630" as="sourcePoint" />
            <mxPoint x="500" y="630" as="targetPoint" />
            <Array as="points">
              <mxPoint x="210" y="380" />
            </Array>
          </mxGeometry>
        </mxCell>
        <mxCell id="jTylTPD2Qd7z4z5_rkoI-12" value="Extends" style="endArrow=block;endSize=16;endFill=0;html=1;rounded=0;entryX=1;entryY=0.5;entryDx=0;entryDy=0;exitX=0.5;exitY=0;exitDx=0;exitDy=0;" parent="WIyWlLk6GJQsqaUBKTNV-1" source="jTylTPD2Qd7z4z5_rkoI-6" target="jTylTPD2Qd7z4z5_rkoI-4" edge="1">
          <mxGeometry width="160" relative="1" as="geometry">
            <mxPoint x="225" y="450" as="sourcePoint" />
            <mxPoint x="320" y="390" as="targetPoint" />
            <Array as="points">
              <mxPoint x="610" y="380" />
            </Array>
          </mxGeometry>
        </mxCell>
        <mxCell id="jTylTPD2Qd7z4z5_rkoI-13" value="CubicSplines" style="html=1;" parent="WIyWlLk6GJQsqaUBKTNV-1" vertex="1">
          <mxGeometry x="270" y="560" width="120" height="40" as="geometry" />
        </mxCell>
        <mxCell id="jTylTPD2Qd7z4z5_rkoI-14" value="LeastSquareApprox" style="html=1;" parent="WIyWlLk6GJQsqaUBKTNV-1" vertex="1">
          <mxGeometry x="550" y="560" width="120" height="40" as="geometry" />
        </mxCell>
        <mxCell id="jTylTPD2Qd7z4z5_rkoI-17" value="" style="endArrow=block;dashed=1;endFill=0;endSize=12;html=1;rounded=0;entryX=1;entryY=0.5;entryDx=0;entryDy=0;exitX=0.5;exitY=0;exitDx=0;exitDy=0;" parent="WIyWlLk6GJQsqaUBKTNV-1" source="jTylTPD2Qd7z4z5_rkoI-13" target="jTylTPD2Qd7z4z5_rkoI-5" edge="1">
          <mxGeometry width="160" relative="1" as="geometry">
            <mxPoint x="360" y="730" as="sourcePoint" />
            <mxPoint x="520" y="730" as="targetPoint" />
            <Array as="points">
              <mxPoint x="330" y="460" />
            </Array>
          </mxGeometry>
        </mxCell>
        <mxCell id="jTylTPD2Qd7z4z5_rkoI-18" value="" style="endArrow=block;dashed=1;endFill=0;endSize=12;html=1;rounded=0;entryX=0.5;entryY=1;entryDx=0;entryDy=0;exitX=0.5;exitY=0;exitDx=0;exitDy=0;" parent="WIyWlLk6GJQsqaUBKTNV-1" source="jTylTPD2Qd7z4z5_rkoI-14" target="jTylTPD2Qd7z4z5_rkoI-6" edge="1">
          <mxGeometry width="160" relative="1" as="geometry">
            <mxPoint x="725" y="560" as="sourcePoint" />
            <mxPoint x="780" y="460" as="targetPoint" />
            <Array as="points" />
          </mxGeometry>
        </mxCell>
        <mxCell id="jTylTPD2Qd7z4z5_rkoI-20" value="ResApprox2D" style="swimlane;fontStyle=1;align=center;verticalAlign=top;childLayout=stackLayout;horizontal=1;startSize=26;horizontalStack=0;resizeParent=1;resizeParentMax=0;resizeLast=0;collapsible=1;marginBottom=0;" parent="WIyWlLk6GJQsqaUBKTNV-1" vertex="1">
          <mxGeometry x="760" y="600" width="330" height="138" as="geometry" />
        </mxCell>
        <mxCell id="jTylTPD2Qd7z4z5_rkoI-21" value="- koeff_a: double" style="text;strokeColor=none;fillColor=none;align=left;verticalAlign=top;spacingLeft=4;spacingRight=4;overflow=hidden;rotatable=0;points=[[0,0.5],[1,0.5]];portConstraint=eastwest;" parent="jTylTPD2Qd7z4z5_rkoI-20" vertex="1">
          <mxGeometry y="26" width="330" height="26" as="geometry" />
        </mxCell>
        <mxCell id="jTylTPD2Qd7z4z5_rkoI-24" value="- koeff_b: double" style="text;strokeColor=none;fillColor=none;align=left;verticalAlign=top;spacingLeft=4;spacingRight=4;overflow=hidden;rotatable=0;points=[[0,0.5],[1,0.5]];portConstraint=eastwest;" parent="jTylTPD2Qd7z4z5_rkoI-20" vertex="1">
          <mxGeometry y="52" width="330" height="26" as="geometry" />
        </mxCell>
        <mxCell id="jTylTPD2Qd7z4z5_rkoI-22" value="" style="line;strokeWidth=1;fillColor=none;align=left;verticalAlign=middle;spacingTop=-1;spacingLeft=3;spacingRight=3;rotatable=0;labelPosition=right;points=[];portConstraint=eastwest;strokeColor=inherit;" parent="jTylTPD2Qd7z4z5_rkoI-20" vertex="1">
          <mxGeometry y="78" width="330" height="8" as="geometry" />
        </mxCell>
        <mxCell id="jTylTPD2Qd7z4z5_rkoI-25" value="+ ResApprox2D(a,b,std::func&lt;double(double)&gt;)" style="text;strokeColor=none;fillColor=none;align=left;verticalAlign=top;spacingLeft=4;spacingRight=4;overflow=hidden;rotatable=0;points=[[0,0.5],[1,0.5]];portConstraint=eastwest;" parent="jTylTPD2Qd7z4z5_rkoI-20" vertex="1">
          <mxGeometry y="86" width="330" height="26" as="geometry" />
        </mxCell>
        <mxCell id="jTylTPD2Qd7z4z5_rkoI-26" value="+ calc(x): double" style="text;strokeColor=none;fillColor=none;align=left;verticalAlign=top;spacingLeft=4;spacingRight=4;overflow=hidden;rotatable=0;points=[[0,0.5],[1,0.5]];portConstraint=eastwest;" parent="jTylTPD2Qd7z4z5_rkoI-20" vertex="1">
          <mxGeometry y="112" width="330" height="26" as="geometry" />
        </mxCell>
        <mxCell id="1O6L1gfdgGQEbQw8-Bye-0" value="Use" style="endArrow=open;endSize=12;dashed=1;html=1;rounded=0;entryX=0.242;entryY=0.002;entryDx=0;entryDy=0;exitX=1;exitY=0.5;exitDx=0;exitDy=0;entryPerimeter=0;" edge="1" parent="WIyWlLk6GJQsqaUBKTNV-1" source="jTylTPD2Qd7z4z5_rkoI-14" target="jTylTPD2Qd7z4z5_rkoI-20">
          <mxGeometry width="160" relative="1" as="geometry">
            <mxPoint x="710" y="560" as="sourcePoint" />
            <mxPoint x="920" y="770" as="targetPoint" />
            <Array as="points">
              <mxPoint x="840" y="580" />
            </Array>
          </mxGeometry>
        </mxCell>
        <mxCell id="1O6L1gfdgGQEbQw8-Bye-1" value="IResApprox2D" style="swimlane;fontStyle=1;align=center;verticalAlign=top;childLayout=stackLayout;horizontal=1;startSize=26;horizontalStack=0;resizeParent=1;resizeParentMax=0;resizeLast=0;collapsible=1;marginBottom=0;" vertex="1" parent="WIyWlLk6GJQsqaUBKTNV-1">
          <mxGeometry x="760" y="388" width="330" height="52" as="geometry" />
        </mxCell>
        <mxCell id="1O6L1gfdgGQEbQw8-Bye-6" value="+ calc(x): double" style="text;strokeColor=none;fillColor=none;align=left;verticalAlign=top;spacingLeft=4;spacingRight=4;overflow=hidden;rotatable=0;points=[[0,0.5],[1,0.5]];portConstraint=eastwest;" vertex="1" parent="1O6L1gfdgGQEbQw8-Bye-1">
          <mxGeometry y="26" width="330" height="26" as="geometry" />
        </mxCell>
        <mxCell id="1O6L1gfdgGQEbQw8-Bye-8" value="Use" style="endArrow=open;endSize=12;dashed=1;html=1;rounded=0;entryX=0.241;entryY=1.004;entryDx=0;entryDy=0;exitX=1;exitY=0.5;exitDx=0;exitDy=0;entryPerimeter=0;" edge="1" parent="WIyWlLk6GJQsqaUBKTNV-1" source="jTylTPD2Qd7z4z5_rkoI-6" target="1O6L1gfdgGQEbQw8-Bye-6">
          <mxGeometry width="160" relative="1" as="geometry">
            <mxPoint x="945" y="610" as="sourcePoint" />
            <mxPoint x="680" y="590" as="targetPoint" />
            <Array as="points">
              <mxPoint x="840" y="460" />
            </Array>
          </mxGeometry>
        </mxCell>
      </root>
    </mxGraphModel>
  </diagram>
</mxfile>
